<?xml version="1.0" standalone="no"?><svg xmlns:xlink="http://www.w3.org/1999/xlink" xmlns="http://www.w3.org/2000/svg" viewBox="0 0 1500 875.0026065016577" preserveAspectRatio="xMaxYMax slice"><g transform="scale(1.9548762433012907)"><rect x="0" y="0" width="767.3142857142857" height="447.6" fill="#ffffff"/><rect x="0" y="0" width="63.94285714285714" height="63.94285714285714" fill="#ffffff"/><circle cx="15.985" cy="15.985" r="15.985" fill="#8b8cc3"/><circle cx="47.955" cy="15.985" r="15.985" fill="#d0d0e6"/><circle cx="15.985" cy="47.955" r="15.985" fill="#8586c0"/><circle cx="47.955" cy="47.955" r="15.985" fill="#dd91b5"/><circle cx="95.91" cy="31.97" r="31.97" fill="#db8ab1"/><circle cx="159.86" cy="31.97" r="31.97" fill="#ececf5"/><circle cx="223.8" cy="31.97" r="31.97" fill="#9c9dcb"/><rect x="255.77142857142857" y="0" width="63.94285714285714" height="63.94285714285714" fill="#ffffff"/><circle cx="271.755" cy="15.985" r="15.985" fill="#e4a7c4"/><circle cx="303.725" cy="15.985" r="15.985" fill="#f9eaf1"/><circle cx="271.755" cy="47.955" r="15.985" fill="#e09bbc"/><circle cx="303.725" cy="47.955" r="15.985" fill="#e5a9c6"/><circle cx="351.67999999999995" cy="31.97" r="31.97" fill="#b4b5d8"/><rect x="383.65714285714284" y="0" width="63.94285714285714" height="63.94285714285714" fill="#ffffff"/><circle cx="399.64500000000004" cy="15.985" r="15.985" fill="#aeafd5"/><circle cx="431.615" cy="15.985" r="15.985" fill="#bbbcdc"/><circle cx="399.64500000000004" cy="47.955" r="15.985" fill="#b2b3d7"/><circle cx="431.615" cy="47.955" r="15.985" fill="#f8f8fc"/><rect x="447.6" y="0" width="63.94285714285714" height="63.94285714285714" fill="#ffffff"/><circle cx="463.58500000000004" cy="15.985" r="15.985" fill="#e09bbc"/><circle cx="495.555" cy="15.985" r="15.985" fill="#b3b4d8"/><circle cx="463.58500000000004" cy="47.955" r="15.985" fill="#eff0f7"/><circle cx="495.555" cy="47.955" r="15.985" fill="#de94b8"/><rect x="511.54285714285714" y="0" width="63.94285714285714" height="63.94285714285714" fill="#ffffff"/><circle cx="527.525" cy="15.985" r="15.985" fill="#b1b2d7"/><circle cx="559.495" cy="15.985" r="15.985" fill="#ecc1d6"/><circle cx="527.525" cy="47.955" r="15.985" fill="#6264ae"/><circle cx="559.495" cy="47.955" r="15.985" fill="#c3c4e0"/><circle cx="607.46" cy="31.97" r="31.97" fill="#e4e5f1"/><circle cx="671.4" cy="31.97" r="31.97" fill="#8587c0"/><rect x="703.3714285714286" y="0" width="63.94285714285714" height="63.94285714285714" fill="#ffffff"/><circle cx="719.355" cy="15.985" r="15.985" fill="#cd5d93"/><circle cx="751.325" cy="15.985" r="15.985" fill="#8384bf"/><circle cx="719.355" cy="47.955" r="15.985" fill="#9fa1cd"/><circle cx="751.325" cy="47.955" r="15.985" fill="#fcf4f8"/><rect x="0" y="63.94285714285714" width="63.94285714285714" height="63.94285714285714" fill="#ffffff"/><circle cx="15.985" cy="79.925" r="15.985" fill="#9e9fcd"/><circle cx="47.955" cy="79.925" r="15.985" fill="#dd92b6"/><circle cx="15.985" cy="111.895" r="15.985" fill="#f4dde8"/><circle cx="47.955" cy="111.895" r="15.985" fill="#c9cae3"/><rect x="63.94285714285714" y="63.94285714285714" width="63.94285714285714" height="63.94285714285714" fill="#ffffff"/><circle cx="79.925" cy="79.925" r="15.985" fill="#fefdfe"/><circle cx="111.895" cy="79.925" r="15.985" fill="#c1c2df"/><circle cx="79.925" cy="111.895" r="15.985" fill="#7f81bd"/><circle cx="111.895" cy="111.895" r="15.985" fill="#ce6095"/><circle cx="159.86" cy="95.91" r="31.97" fill="#dedfee"/><circle cx="223.8" cy="95.91" r="31.97" fill="#de93b7"/><rect x="255.77142857142857" y="63.94285714285714" width="63.94285714285714" height="63.94285714285714" fill="#ffffff"/><circle cx="271.755" cy="79.925" r="15.985" fill="#8486bf"/><circle cx="303.725" cy="79.925" r="15.985" fill="#db89b0"/><circle cx="271.755" cy="111.895" r="15.985" fill="#fffefe"/><circle cx="303.725" cy="111.895" r="15.985" fill="#b7b8da"/><circle cx="351.67999999999995" cy="95.91" r="31.97" fill="#dfe0ef"/><circle cx="415.63" cy="95.91" r="31.97" fill="#fbf2f6"/><circle cx="479.57000000000005" cy="95.91" r="31.97" fill="#e9b6ce"/><rect x="511.54285714285714" y="63.94285714285714" width="63.94285714285714" height="63.94285714285714" fill="#ffffff"/><circle cx="527.525" cy="79.925" r="15.985" fill="#f3d7e4"/><circle cx="559.495" cy="79.925" r="15.985" fill="#a0a1ce"/><circle cx="527.525" cy="111.895" r="15.985" fill="#d1689a"/><circle cx="559.495" cy="111.895" r="15.985" fill="#9697c9"/><circle cx="607.46" cy="95.91" r="31.97" fill="#6869b1"/><circle cx="671.4" cy="95.91" r="31.97" fill="#fcf4f8"/><rect x="703.3714285714286" y="63.94285714285714" width="63.94285714285714" height="63.94285714285714" fill="#ffffff"/><circle cx="719.355" cy="79.925" r="15.985" fill="#fcf4f8"/><circle cx="751.325" cy="79.925" r="15.985" fill="#e7b0ca"/><circle cx="719.355" cy="111.895" r="15.985" fill="#cbcce4"/><circle cx="751.325" cy="111.895" r="15.985" fill="#d371a0"/><rect x="0" y="127.88571428571429" width="63.94285714285714" height="63.94285714285714" fill="#ffffff"/><circle cx="15.985" cy="143.875" r="15.985" fill="#8586c0"/><circle cx="47.955" cy="143.875" r="15.985" fill="#eeeef6"/><circle cx="15.985" cy="175.84500000000003" r="15.985" fill="#d4d5e9"/><circle cx="47.955" cy="175.84500000000003" r="15.985" fill="#d982ac"/><rect x="63.94285714285714" y="127.88571428571429" width="63.94285714285714" height="63.94285714285714" fill="#ffffff"/><circle cx="79.925" cy="143.875" r="15.985" fill="#6e6fb4"/><circle cx="111.895" cy="143.875" r="15.985" fill="#fdfafc"/><circle cx="79.925" cy="175.84500000000003" r="15.985" fill="#8081bd"/><circle cx="111.895" cy="175.84500000000003" r="15.985" fill="#8082bd"/><rect x="127.88571428571429" y="127.88571428571429" width="63.94285714285714" height="63.94285714285714" fill="#ffffff"/><circle cx="143.875" cy="143.875" r="15.985" fill="#ebbed3"/><circle cx="175.84500000000003" cy="143.875" r="15.985" fill="#d983ac"/><circle cx="143.875" cy="175.84500000000003" r="15.985" fill="#696ab1"/><circle cx="175.84500000000003" cy="175.84500000000003" r="15.985" fill="#d26d9d"/><circle cx="223.8" cy="159.86" r="31.97" fill="#6264ae"/><circle cx="287.74" cy="159.86" r="31.97" fill="#eec6d9"/><circle cx="351.67999999999995" cy="159.86" r="31.97" fill="#e9e9f3"/><circle cx="415.63" cy="159.86" r="31.97" fill="#e099bb"/><circle cx="479.57000000000005" cy="159.86" r="31.97" fill="#fafafc"/><rect x="511.54285714285714" y="127.88571428571429" width="63.94285714285714" height="63.94285714285714" fill="#ffffff"/><circle cx="527.525" cy="143.875" r="15.985" fill="#8e8fc4"/><circle cx="559.495" cy="143.875" r="15.985" fill="#ecc1d5"/><circle cx="527.525" cy="175.84500000000003" r="15.985" fill="#b5b6d9"/><circle cx="559.495" cy="175.84500000000003" r="15.985" fill="#7273b6"/><rect x="575.4857142857143" y="127.88571428571429" width="63.94285714285714" height="63.94285714285714" fill="#ffffff"/><circle cx="591.475" cy="143.875" r="15.985" fill="#8d8ec4"/><circle cx="623.445" cy="143.875" r="15.985" fill="#a8a9d2"/><circle cx="591.475" cy="175.84500000000003" r="15.985" fill="#c1c2df"/><circle cx="623.445" cy="175.84500000000003" r="15.985" fill="#df97b9"/><rect x="639.4285714285714" y="127.88571428571429" width="63.94285714285714" height="63.94285714285714" fill="#ffffff"/><circle cx="655.415" cy="143.875" r="15.985" fill="#e3a3c1"/><circle cx="687.385" cy="143.875" r="15.985" fill="#e6aec9"/><circle cx="655.415" cy="175.84500000000003" r="15.985" fill="#5b5daa"/><circle cx="687.385" cy="175.84500000000003" r="15.985" fill="#f7e6ee"/><circle cx="735.34" cy="159.86" r="31.97" fill="#7172b5"/><rect x="0" y="191.82857142857142" width="63.94285714285714" height="63.94285714285714" fill="#ffffff"/><circle cx="15.985" cy="207.815" r="15.985" fill="#de95b8"/><circle cx="47.955" cy="207.815" r="15.985" fill="#a7a8d1"/><circle cx="15.985" cy="239.78500000000003" r="15.985" fill="#f9ebf1"/><circle cx="47.955" cy="239.78500000000003" r="15.985" fill="#d472a1"/><circle cx="95.91" cy="223.8" r="31.97" fill="#d472a1"/><circle cx="159.86" cy="223.8" r="31.97" fill="#8183be"/><rect x="191.82857142857142" y="191.82857142857142" width="63.94285714285714" height="63.94285714285714" fill="#ffffff"/><circle cx="207.815" cy="207.815" r="15.985" fill="#6668b0"/><circle cx="239.78500000000003" cy="207.815" r="15.985" fill="#d982ab"/><circle cx="207.815" cy="239.78500000000003" r="15.985" fill="#d984ad"/><circle cx="239.78500000000003" cy="239.78500000000003" r="15.985" fill="#9596c8"/><circle cx="287.74" cy="223.8" r="31.97" fill="#f0cede"/><rect x="319.7142857142857" y="191.82857142857142" width="63.94285714285714" height="63.94285714285714" fill="#ffffff"/><circle cx="335.695" cy="207.815" r="15.985" fill="#ce6195"/><circle cx="367.675" cy="207.815" r="15.985" fill="#c2c2df"/><circle cx="335.695" cy="239.78500000000003" r="15.985" fill="#f9ecf3"/><circle cx="367.675" cy="239.78500000000003" r="15.985" fill="#f5dfe9"/><circle cx="415.63" cy="223.8" r="31.97" fill="#b8b9da"/><circle cx="479.57000000000005" cy="223.8" r="31.97" fill="#b0b1d6"/><rect x="511.54285714285714" y="191.82857142857142" width="63.94285714285714" height="63.94285714285714" fill="#ffffff"/><circle cx="527.525" cy="207.815" r="15.985" fill="#eec7d9"/><circle cx="559.495" cy="207.815" r="15.985" fill="#d2d3e8"/><circle cx="527.525" cy="239.78500000000003" r="15.985" fill="#e6acc8"/><circle cx="559.495" cy="239.78500000000003" r="15.985" fill="#eec8da"/><circle cx="607.46" cy="223.8" r="31.97" fill="#f0cddd"/><circle cx="671.4" cy="223.8" r="31.97" fill="#dc8cb2"/><circle cx="735.34" cy="223.8" r="31.97" fill="#f7f7fb"/><circle cx="31.97" cy="287.74" r="31.97" fill="#8d8ec4"/><rect x="63.94285714285714" y="255.77142857142857" width="63.94285714285714" height="63.94285714285714" fill="#ffffff"/><circle cx="79.925" cy="271.755" r="15.985" fill="#8486bf"/><circle cx="111.895" cy="271.755" r="15.985" fill="#f1d2e1"/><circle cx="79.925" cy="303.725" r="15.985" fill="#a1a2ce"/><circle cx="111.895" cy="303.725" r="15.985" fill="#b6b7d9"/><rect x="127.88571428571429" y="255.77142857142857" width="63.94285714285714" height="63.94285714285714" fill="#ffffff"/><circle cx="143.875" cy="271.755" r="15.985" fill="#9e9fcd"/><circle cx="175.84500000000003" cy="271.755" r="15.985" fill="#e3a3c2"/><circle cx="143.875" cy="303.725" r="15.985" fill="#ce5f94"/><circle cx="175.84500000000003" cy="303.725" r="15.985" fill="#f9ebf2"/><rect x="191.82857142857142" y="255.77142857142857" width="63.94285714285714" height="63.94285714285714" fill="#ffffff"/><circle cx="207.815" cy="271.755" r="15.985" fill="#6869b1"/><circle cx="239.78500000000003" cy="271.755" r="15.985" fill="#ececf5"/><circle cx="207.815" cy="303.725" r="15.985" fill="#fbfcfd"/><circle cx="239.78500000000003" cy="303.725" r="15.985" fill="#e9b8cf"/><circle cx="287.74" cy="287.74" r="31.97" fill="#f1d1e0"/><circle cx="351.67999999999995" cy="287.74" r="31.97" fill="#acadd4"/><circle cx="415.63" cy="287.74" r="31.97" fill="#dbdced"/><circle cx="479.57000000000005" cy="287.74" r="31.97" fill="#6b6db2"/><rect x="511.54285714285714" y="255.77142857142857" width="63.94285714285714" height="63.94285714285714" fill="#ffffff"/><circle cx="527.525" cy="271.755" r="15.985" fill="#a7a8d2"/><circle cx="559.495" cy="271.755" r="15.985" fill="#8384bf"/><circle cx="527.525" cy="303.725" r="15.985" fill="#d678a5"/><circle cx="559.495" cy="303.725" r="15.985" fill="#dd8fb4"/><circle cx="607.46" cy="287.74" r="31.97" fill="#b2b3d7"/><rect x="639.4285714285714" y="255.77142857142857" width="63.94285714285714" height="63.94285714285714" fill="#ffffff"/><circle cx="655.415" cy="271.755" r="15.985" fill="#8687c0"/><circle cx="687.385" cy="271.755" r="15.985" fill="#9a9bca"/><circle cx="655.415" cy="303.725" r="15.985" fill="#8283be"/><circle cx="687.385" cy="303.725" r="15.985" fill="#f6f6fa"/><rect x="703.3714285714286" y="255.77142857142857" width="63.94285714285714" height="63.94285714285714" fill="#ffffff"/><circle cx="719.355" cy="271.755" r="15.985" fill="#f3f3f9"/><circle cx="751.325" cy="271.755" r="15.985" fill="#c8c8e2"/><circle cx="719.355" cy="303.725" r="15.985" fill="#e8b5ce"/><circle cx="751.325" cy="303.725" r="15.985" fill="#8a8bc2"/><circle cx="31.97" cy="351.67999999999995" r="31.97" fill="#7072b5"/><rect x="63.94285714285714" y="319.7142857142857" width="63.94285714285714" height="63.94285714285714" fill="#ffffff"/><circle cx="79.925" cy="335.695" r="15.985" fill="#7072b5"/><circle cx="111.895" cy="335.695" r="15.985" fill="#9d9ecc"/><circle cx="79.925" cy="367.675" r="15.985" fill="#eab9d0"/><circle cx="111.895" cy="367.675" r="15.985" fill="#e4a6c3"/><rect x="127.88571428571429" y="319.7142857142857" width="63.94285714285714" height="63.94285714285714" fill="#ffffff"/><circle cx="143.875" cy="335.695" r="15.985" fill="#e3a3c2"/><circle cx="175.84500000000003" cy="335.695" r="15.985" fill="#eec9db"/><circle cx="143.875" cy="367.675" r="15.985" fill="#d982ab"/><circle cx="175.84500000000003" cy="367.675" r="15.985" fill="#ce6095"/><circle cx="223.8" cy="351.67999999999995" r="31.97" fill="#f8e8ef"/><circle cx="287.74" cy="351.67999999999995" r="31.97" fill="#e5e5f1"/><circle cx="351.67999999999995" cy="351.67999999999995" r="31.97" fill="#e19dbd"/><circle cx="415.63" cy="351.67999999999995" r="31.97" fill="#eec8da"/><rect x="447.6" y="319.7142857142857" width="63.94285714285714" height="63.94285714285714" fill="#ffffff"/><circle cx="463.58500000000004" cy="335.695" r="15.985" fill="#f4dbe7"/><circle cx="495.555" cy="335.695" r="15.985" fill="#d6d7ea"/><circle cx="463.58500000000004" cy="367.675" r="15.985" fill="#8284be"/><circle cx="495.555" cy="367.675" r="15.985" fill="#7273b6"/><circle cx="543.51" cy="351.67999999999995" r="31.97" fill="#c0c0de"/><rect x="575.4857142857143" y="319.7142857142857" width="63.94285714285714" height="63.94285714285714" fill="#ffffff"/><circle cx="591.475" cy="335.695" r="15.985" fill="#e0e0ef"/><circle cx="623.445" cy="335.695" r="15.985" fill="#d371a0"/><circle cx="591.475" cy="367.675" r="15.985" fill="#f7f7fb"/><circle cx="623.445" cy="367.675" r="15.985" fill="#ecc1d5"/><circle cx="671.4" cy="351.67999999999995" r="31.97" fill="#dd8fb4"/><circle cx="735.34" cy="351.67999999999995" r="31.97" fill="#e8b4cd"/><circle cx="31.97" cy="415.63" r="31.97" fill="#d983ac"/><rect x="63.94285714285714" y="383.65714285714284" width="63.94285714285714" height="63.94285714285714" fill="#ffffff"/><circle cx="79.925" cy="399.64500000000004" r="15.985" fill="#7173b6"/><circle cx="111.895" cy="399.64500000000004" r="15.985" fill="#d679a5"/><circle cx="79.925" cy="431.615" r="15.985" fill="#7f80bd"/><circle cx="111.895" cy="431.615" r="15.985" fill="#e2a0c0"/><circle cx="159.86" cy="415.63" r="31.97" fill="#eeeef6"/><circle cx="223.8" cy="415.63" r="31.97" fill="#8e8fc4"/><circle cx="287.74" cy="415.63" r="31.97" fill="#fcf5f8"/><circle cx="351.67999999999995" cy="415.63" r="31.97" fill="#babbdb"/><circle cx="415.63" cy="415.63" r="31.97" fill="#a2a3cf"/><circle cx="479.57000000000005" cy="415.63" r="31.97" fill="#e4e4f1"/><circle cx="543.51" cy="415.63" r="31.97" fill="#b9badb"/><rect x="575.4857142857143" y="383.65714285714284" width="63.94285714285714" height="63.94285714285714" fill="#ffffff"/><circle cx="591.475" cy="399.64500000000004" r="15.985" fill="#cf6497"/><circle cx="623.445" cy="399.64500000000004" r="15.985" fill="#8082bd"/><circle cx="591.475" cy="431.615" r="15.985" fill="#8687c0"/><circle cx="623.445" cy="431.615" r="15.985" fill="#7476b7"/><circle cx="671.4" cy="415.63" r="31.97" fill="#c4c5e0"/><circle cx="735.34" cy="415.63" r="31.97" fill="#a5a6d0"/></g></svg>