<?xml version="1.0" standalone="no"?><svg xmlns:xlink="http://www.w3.org/1999/xlink" xmlns="http://www.w3.org/2000/svg" viewBox="0 0 1600 933.3361136017683" preserveAspectRatio="xMaxYMax slice"><g transform="scale(2.0852013261880433)"><rect x="0" y="0" width="767.3142857142857" height="447.6" fill="#ffffff"/><path d="M 191.83 127.88 A 63.94 63.94 0 0 1  255.77 63.94 L 191.83 127.88 A 63.94 63.94 0 0 0 255.77 63.94" fill="#d985ad"/><path d="M 255.77 127.88 A 63.94 63.94 0 0 1  319.71000000000004 63.94 L 255.77 127.88 A 63.94 63.94 0 0 0 319.71000000000004 63.94" fill="#d576a4"/><path d="M 447.6 63.94 A 63.94 63.94 0 0 1  511.54 127.88 L 447.6 63.94 A 63.94 63.94 0 0 0 511.54 127.88" fill="#f2d5e3"/><path d="M 255.77 127.89 A 63.94 63.94 0 0 1  319.71000000000004 191.82999999999998 L 255.77 127.89 A 63.94 63.94 0 0 0 319.71000000000004 191.82999999999998" fill="#b8b9da"/><path d="M 319.71 191.82999999999998 A 63.94 63.94 0 0 1  383.65 127.89 L 319.71 191.82999999999998 A 63.94 63.94 0 0 0 383.65 127.89" fill="#5c5eab"/><rect x="383.65714285714284" y="127.88571428571429" width="63.94285714285714" height="63.94285714285714" fill="#ffffff"/><path d="M 383.66 127.89 A 31.97 31.97 0 0 1  415.63 159.86 L 383.66 127.89 A 31.97 31.97 0 0 0 415.63 159.86" fill="#8385bf"/><path d="M 383.66 159.86 A 31.97 31.97 0 0 1  415.63 191.83 L 383.66 159.86 A 31.97 31.97 0 0 0 415.63 191.83" fill="#7b7cba"/><rect x="639.4285714285714" y="127.88571428571429" width="63.94285714285714" height="63.94285714285714" fill="#ffffff"/><path d="M 639.43 127.89 A 31.97 31.97 0 0 1  671.4 159.86 L 639.43 127.89 A 31.97 31.97 0 0 0 671.4 159.86" fill="#8082bd"/><path d="M 671.4 127.89 A 31.97 31.97 0 0 1  703.37 159.86 L 671.4 127.89 A 31.97 31.97 0 0 0 703.37 159.86" fill="#c3c3e0"/><path d="M 671.4 159.86 A 31.97 31.97 0 0 1  703.37 191.83 L 671.4 159.86 A 31.97 31.97 0 0 0 703.37 191.83" fill="#c8c9e2"/><path d="M 0 255.77 A 63.94 63.94 0 0 1  63.94 191.83 L 0 255.77 A 63.94 63.94 0 0 0 63.94 191.83" fill="#f0d0df"/><path d="M 255.77 191.83 A 63.94 63.94 0 0 1  319.71000000000004 255.77 L 255.77 191.83 A 63.94 63.94 0 0 0 319.71000000000004 255.77" fill="#797bba"/><path d="M 383.66 191.83 A 63.94 63.94 0 0 1  447.6 255.77 L 383.66 191.83 A 63.94 63.94 0 0 0 447.6 255.77" fill="#ededf6"/><rect x="511.54285714285714" y="191.82857142857142" width="63.94285714285714" height="63.94285714285714" fill="#ffffff"/><path d="M 511.54 223.8 A 31.97 31.97 0 0 1  543.51 255.77 L 511.54 223.8 A 31.97 31.97 0 0 0 543.51 255.77" fill="#d1d2e7"/><rect x="575.4857142857143" y="191.82857142857142" width="63.94285714285714" height="63.94285714285714" fill="#ffffff"/><path d="M 575.49 223.8 A 31.97 31.97 0 0 1  607.46 255.77 L 575.49 223.8 A 31.97 31.97 0 0 0 607.46 255.77" fill="#e3a3c1"/><rect x="703.3714285714286" y="191.82857142857142" width="63.94285714285714" height="63.94285714285714" fill="#ffffff"/><path d="M 735.34 223.8 A 31.97 31.97 0 0 1  767.3100000000001 191.83 L 735.34 223.8 A 31.97 31.97 0 0 0 767.3100000000001 191.83" fill="#cd5d93"/><path d="M 703.37 223.8 A 31.97 31.97 0 0 1  735.34 255.77 L 703.37 223.8 A 31.97 31.97 0 0 0 735.34 255.77" fill="#b3b4d8"/><path d="M 735.34 255.77 A 31.97 31.97 0 0 1  767.3100000000001 223.8 L 735.34 255.77 A 31.97 31.97 0 0 0 767.3100000000001 223.8" fill="#6c6db3"/><rect x="0" y="255.77142857142857" width="63.94285714285714" height="63.94285714285714" fill="#ffffff"/><path d="M 0 287.74 A 31.97 31.97 0 0 1  31.97 255.77 L 0 287.74 A 31.97 31.97 0 0 0 31.97 255.77" fill="#f7e5ed"/><path d="M 0 287.74 A 31.97 31.97 0 0 1  31.97 319.71000000000004 L 0 287.74 A 31.97 31.97 0 0 0 31.97 319.71000000000004" fill="#f6e2ec"/><path d="M 63.94 319.71000000000004 A 63.94 63.94 0 0 1  127.88 255.77 L 63.94 319.71000000000004 A 63.94 63.94 0 0 0 127.88 255.77" fill="#d77da8"/><path d="M 127.89 319.71000000000004 A 63.94 63.94 0 0 1  191.82999999999998 255.77 L 127.89 319.71000000000004 A 63.94 63.94 0 0 0 191.82999999999998 255.77" fill="#eec7da"/><rect x="191.82857142857142" y="255.77142857142857" width="63.94285714285714" height="63.94285714285714" fill="#ffffff"/><path d="M 223.8 255.77 A 31.97 31.97 0 0 1  255.77 287.74 L 223.8 255.77 A 31.97 31.97 0 0 0 255.77 287.74" fill="#8b8cc3"/><path d="M 191.83 319.71000000000004 A 31.97 31.97 0 0 1  223.8 287.74 L 191.83 319.71000000000004 A 31.97 31.97 0 0 0 223.8 287.74" fill="#8f91c5"/><path d="M 223.8 319.71000000000004 A 31.97 31.97 0 0 1  255.77 287.74 L 223.8 319.71000000000004 A 31.97 31.97 0 0 0 255.77 287.74" fill="#cdcee5"/><rect x="255.77142857142857" y="255.77142857142857" width="63.94285714285714" height="63.94285714285714" fill="#ffffff"/><path d="M 287.74 287.74 A 31.97 31.97 0 0 1  319.71000000000004 255.77 L 287.74 287.74 A 31.97 31.97 0 0 0 319.71000000000004 255.77" fill="#dbdbec"/><path d="M 255.77 287.74 A 31.97 31.97 0 0 1  287.74 319.71000000000004 L 255.77 287.74 A 31.97 31.97 0 0 0 287.74 319.71000000000004" fill="#f6f7fb"/><path d="M 319.71 255.77 A 63.94 63.94 0 0 1  383.65 319.71000000000004 L 319.71 255.77 A 63.94 63.94 0 0 0 383.65 319.71000000000004" fill="#ebbfd4"/><path d="M 383.66 255.77 A 63.94 63.94 0 0 1  447.6 319.71000000000004 L 383.66 255.77 A 63.94 63.94 0 0 0 447.6 319.71000000000004" fill="#e29fbf"/><path d="M 447.6 319.71000000000004 A 63.94 63.94 0 0 1  511.54 255.77 L 447.6 319.71000000000004 A 63.94 63.94 0 0 0 511.54 255.77" fill="#faf0f5"/><path d="M 511.54 319.71000000000004 A 63.94 63.94 0 0 1  575.48 255.77 L 511.54 319.71000000000004 A 63.94 63.94 0 0 0 575.48 255.77" fill="#ecc0d5"/><rect x="575.4857142857143" y="255.77142857142857" width="63.94285714285714" height="63.94285714285714" fill="#ffffff"/><path d="M 575.49 287.74 A 31.97 31.97 0 0 1  607.46 255.77 L 575.49 287.74 A 31.97 31.97 0 0 0 607.46 255.77" fill="#ffffff"/><path d="M 575.49 287.74 A 31.97 31.97 0 0 1  607.46 319.71000000000004 L 575.49 287.74 A 31.97 31.97 0 0 0 607.46 319.71000000000004" fill="#8586c0"/><path d="M 607.46 287.74 A 31.97 31.97 0 0 1  639.4300000000001 319.71000000000004 L 607.46 287.74 A 31.97 31.97 0 0 0 639.4300000000001 319.71000000000004" fill="#8889c1"/><path d="M 639.43 255.77 A 63.94 63.94 0 0 1  703.3699999999999 319.71000000000004 L 639.43 255.77 A 63.94 63.94 0 0 0 703.3699999999999 319.71000000000004" fill="#e7afca"/><path d="M 0 383.65 A 63.94 63.94 0 0 1  63.94 319.71 L 0 383.65 A 63.94 63.94 0 0 0 63.94 319.71" fill="#d26c9d"/><rect x="63.94285714285714" y="319.7142857142857" width="63.94285714285714" height="63.94285714285714" fill="#ffffff"/><path d="M 63.94 319.71 A 31.97 31.97 0 0 1  95.91 351.67999999999995 L 63.94 319.71 A 31.97 31.97 0 0 0 95.91 351.67999999999995" fill="#e09abb"/><path d="M 95.91 319.71 A 31.97 31.97 0 0 1  127.88 351.67999999999995 L 95.91 319.71 A 31.97 31.97 0 0 0 127.88 351.67999999999995" fill="#d3d4e8"/><path d="M 63.94 383.65999999999997 A 31.97 31.97 0 0 1  95.91 351.69 L 63.94 383.65999999999997 A 31.97 31.97 0 0 0 95.91 351.69" fill="#dd90b5"/><path d="M 95.91 351.69 A 31.97 31.97 0 0 1  127.88 383.65999999999997 L 95.91 351.69 A 31.97 31.97 0 0 0 127.88 383.65999999999997" fill="#d3d4e8"/><path d="M 191.83 319.71 A 63.94 63.94 0 0 1  255.77 383.65 L 191.83 319.71 A 63.94 63.94 0 0 0 255.77 383.65" fill="#e5a9c5"/><rect x="255.77142857142857" y="319.7142857142857" width="63.94285714285714" height="63.94285714285714" fill="#ffffff"/><path d="M 255.77 319.71 A 31.97 31.97 0 0 1  287.74 351.67999999999995 L 255.77 319.71 A 31.97 31.97 0 0 0 287.74 351.67999999999995" fill="#696ab1"/><path d="M 287.74 319.71 A 31.97 31.97 0 0 1  319.71000000000004 351.67999999999995 L 287.74 319.71 A 31.97 31.97 0 0 0 319.71000000000004 351.67999999999995" fill="#bbbcdc"/><path d="M 255.77 383.65999999999997 A 31.97 31.97 0 0 1  287.74 351.69 L 255.77 383.65999999999997 A 31.97 31.97 0 0 0 287.74 351.69" fill="#d36f9f"/><path d="M 287.74 351.69 A 31.97 31.97 0 0 1  319.71000000000004 383.65999999999997 L 287.74 351.69 A 31.97 31.97 0 0 0 319.71000000000004 383.65999999999997" fill="#f8e7ef"/><path d="M 319.71 319.71 A 63.94 63.94 0 0 1  383.65 383.65 L 319.71 319.71 A 63.94 63.94 0 0 0 383.65 383.65" fill="#babbdc"/><path d="M 383.66 383.65 A 63.94 63.94 0 0 1  447.6 319.71 L 383.66 383.65 A 63.94 63.94 0 0 0 447.6 319.71" fill="#f8e7ef"/><rect x="447.6" y="319.7142857142857" width="63.94285714285714" height="63.94285714285714" fill="#ffffff"/><path d="M 447.6 351.67999999999995 A 31.97 31.97 0 0 1  479.57000000000005 319.71 L 447.6 351.67999999999995 A 31.97 31.97 0 0 0 479.57000000000005 319.71" fill="#9192c6"/><path d="M 479.57 351.67999999999995 A 31.97 31.97 0 0 1  511.53999999999996 319.71 L 479.57 351.67999999999995 A 31.97 31.97 0 0 0 511.53999999999996 319.71" fill="#d9d9eb"/><path d="M 447.6 351.69 A 31.97 31.97 0 0 1  479.57000000000005 383.65999999999997 L 447.6 351.69 A 31.97 31.97 0 0 0 479.57000000000005 383.65999999999997" fill="#f5dee9"/><path d="M 479.57 351.69 A 31.97 31.97 0 0 1  511.53999999999996 383.65999999999997 L 479.57 351.69 A 31.97 31.97 0 0 0 511.53999999999996 383.65999999999997" fill="#afb0d6"/><rect x="511.54285714285714" y="319.7142857142857" width="63.94285714285714" height="63.94285714285714" fill="#ffffff"/><path d="M 511.54 351.67999999999995 A 31.97 31.97 0 0 1  543.51 319.71 L 511.54 351.67999999999995 A 31.97 31.97 0 0 0 543.51 319.71" fill="#d06598"/><path d="M 543.51 319.71 A 31.97 31.97 0 0 1  575.48 351.67999999999995 L 543.51 319.71 A 31.97 31.97 0 0 0 575.48 351.67999999999995" fill="#898ac2"/><path d="M 511.54 383.65999999999997 A 31.97 31.97 0 0 1  543.51 351.69 L 511.54 383.65999999999997 A 31.97 31.97 0 0 0 543.51 351.69" fill="#fdf7fa"/><path d="M 543.51 383.65999999999997 A 31.97 31.97 0 0 1  575.48 351.69 L 543.51 383.65999999999997 A 31.97 31.97 0 0 0 575.48 351.69" fill="#fcf5f8"/><path d="M 575.49 383.65 A 63.94 63.94 0 0 1  639.4300000000001 319.71 L 575.49 383.65 A 63.94 63.94 0 0 0 639.4300000000001 319.71" fill="#c8c9e2"/><rect x="639.4285714285714" y="319.7142857142857" width="63.94285714285714" height="63.94285714285714" fill="#ffffff"/><path d="M 639.43 351.67999999999995 A 31.97 31.97 0 0 1  671.4 319.71 L 639.43 351.67999999999995 A 31.97 31.97 0 0 0 671.4 319.71" fill="#686ab1"/><path d="M 671.4 351.67999999999995 A 31.97 31.97 0 0 1  703.37 319.71 L 671.4 351.67999999999995 A 31.97 31.97 0 0 0 703.37 319.71" fill="#bcbddd"/><path d="M 639.43 351.69 A 31.97 31.97 0 0 1  671.4 383.65999999999997 L 639.43 351.69 A 31.97 31.97 0 0 0 671.4 383.65999999999997" fill="#6365ae"/><path d="M 671.4 383.65999999999997 A 31.97 31.97 0 0 1  703.37 351.69 L 671.4 383.65999999999997 A 31.97 31.97 0 0 0 703.37 351.69" fill="#989aca"/><rect x="703.3714285714286" y="319.7142857142857" width="63.94285714285714" height="63.94285714285714" fill="#ffffff"/><path d="M 703.37 319.71 A 31.97 31.97 0 0 1  735.34 351.67999999999995 L 703.37 319.71 A 31.97 31.97 0 0 0 735.34 351.67999999999995" fill="#cfcfe6"/><path d="M 735.34 319.71 A 31.97 31.97 0 0 1  767.3100000000001 351.67999999999995 L 735.34 319.71 A 31.97 31.97 0 0 0 767.3100000000001 351.67999999999995" fill="#f6e1eb"/><path d="M 735.34 383.65999999999997 A 31.97 31.97 0 0 1  767.3100000000001 351.69 L 735.34 383.65999999999997 A 31.97 31.97 0 0 0 767.3100000000001 351.69" fill="#e7b2cb"/><rect x="0" y="383.65714285714284" width="63.94285714285714" height="63.94285714285714" fill="#ffffff"/><path d="M 0 383.66 A 31.97 31.97 0 0 1  31.97 415.63 L 0 383.66 A 31.97 31.97 0 0 0 31.97 415.63" fill="#cc5a91"/><path d="M 31.97 383.66 A 31.97 31.97 0 0 1  63.94 415.63 L 31.97 383.66 A 31.97 31.97 0 0 0 63.94 415.63" fill="#dddded"/><path d="M 0 415.63 A 31.97 31.97 0 0 1  31.97 447.6 L 0 415.63 A 31.97 31.97 0 0 0 31.97 447.6" fill="#f8f8fb"/><path d="M 31.97 447.6 A 31.97 31.97 0 0 1  63.94 415.63 L 31.97 447.6 A 31.97 31.97 0 0 0 63.94 415.63" fill="#8486bf"/><path d="M 63.94 383.66 A 63.94 63.94 0 0 1  127.88 447.6 L 63.94 383.66 A 63.94 63.94 0 0 0 127.88 447.6" fill="#cdcde5"/><rect x="127.88571428571429" y="383.65714285714284" width="63.94285714285714" height="63.94285714285714" fill="#ffffff"/><path d="M 127.89 383.66 A 31.97 31.97 0 0 1  159.86 415.63 L 127.89 383.66 A 31.97 31.97 0 0 0 159.86 415.63" fill="#9899ca"/><path d="M 159.86 383.66 A 31.97 31.97 0 0 1  191.83 415.63 L 159.86 383.66 A 31.97 31.97 0 0 0 191.83 415.63" fill="#6c6eb3"/><path d="M 127.89 415.63 A 31.97 31.97 0 0 1  159.86 447.6 L 127.89 415.63 A 31.97 31.97 0 0 0 159.86 447.6" fill="#f3d9e6"/><path d="M 159.86 447.6 A 31.97 31.97 0 0 1  191.83 415.63 L 159.86 447.6 A 31.97 31.97 0 0 0 191.83 415.63" fill="#d0d0e7"/><path d="M 191.83 447.6 A 63.94 63.94 0 0 1  255.77 383.66 L 191.83 447.6 A 63.94 63.94 0 0 0 255.77 383.66" fill="#b9badb"/><rect x="255.77142857142857" y="383.65714285714284" width="63.94285714285714" height="63.94285714285714" fill="#ffffff"/><path d="M 255.77 415.63 A 31.97 31.97 0 0 1  287.74 383.66 L 255.77 415.63 A 31.97 31.97 0 0 0 287.74 383.66" fill="#f8e8f0"/><path d="M 287.74 383.66 A 31.97 31.97 0 0 1  319.71000000000004 415.63 L 287.74 383.66 A 31.97 31.97 0 0 0 319.71000000000004 415.63" fill="#edc5d9"/><path d="M 255.77 415.63 A 31.97 31.97 0 0 1  287.74 447.6 L 255.77 415.63 A 31.97 31.97 0 0 0 287.74 447.6" fill="#efcadc"/><path d="M 287.74 415.63 A 31.97 31.97 0 0 1  319.71000000000004 447.6 L 287.74 415.63 A 31.97 31.97 0 0 0 319.71000000000004 447.6" fill="#5b5daa"/><path d="M 319.71 447.6 A 63.94 63.94 0 0 1  383.65 383.66 L 319.71 447.6 A 63.94 63.94 0 0 0 383.65 383.66" fill="#b2b3d7"/><path d="M 383.66 383.66 A 63.94 63.94 0 0 1  447.6 447.6 L 383.66 383.66 A 63.94 63.94 0 0 0 447.6 447.6" fill="#8f90c5"/><rect x="447.6" y="383.65714285714284" width="63.94285714285714" height="63.94285714285714" fill="#ffffff"/><path d="M 447.6 383.66 A 31.97 31.97 0 0 1  479.57000000000005 415.63 L 447.6 383.66 A 31.97 31.97 0 0 0 479.57000000000005 415.63" fill="#d576a4"/><path d="M 479.57 415.63 A 31.97 31.97 0 0 1  511.53999999999996 383.66 L 479.57 415.63 A 31.97 31.97 0 0 0 511.53999999999996 383.66" fill="#e3a5c3"/><path d="M 447.6 415.63 A 31.97 31.97 0 0 1  479.57000000000005 447.6 L 447.6 415.63 A 31.97 31.97 0 0 0 479.57000000000005 447.6" fill="#c1c1df"/><path d="M 479.57 415.63 A 31.97 31.97 0 0 1  511.53999999999996 447.6 L 479.57 415.63 A 31.97 31.97 0 0 0 511.53999999999996 447.6" fill="#fcfcfd"/><rect x="511.54285714285714" y="383.65714285714284" width="63.94285714285714" height="63.94285714285714" fill="#ffffff"/><path d="M 511.54 383.66 A 31.97 31.97 0 0 1  543.51 415.63 L 511.54 383.66 A 31.97 31.97 0 0 0 543.51 415.63" fill="#ebbed3"/><path d="M 543.51 383.66 A 31.97 31.97 0 0 1  575.48 415.63 L 543.51 383.66 A 31.97 31.97 0 0 0 575.48 415.63" fill="#babbdb"/><path d="M 511.54 415.63 A 31.97 31.97 0 0 1  543.51 447.6 L 511.54 415.63 A 31.97 31.97 0 0 0 543.51 447.6" fill="#8183be"/><path d="M 543.51 447.6 A 31.97 31.97 0 0 1  575.48 415.63 L 543.51 447.6 A 31.97 31.97 0 0 0 575.48 415.63" fill="#dc8eb4"/><rect x="575.4857142857143" y="383.65714285714284" width="63.94285714285714" height="63.94285714285714" fill="#ffffff"/><path d="M 575.49 415.63 A 31.97 31.97 0 0 1  607.46 383.66 L 575.49 415.63 A 31.97 31.97 0 0 0 607.46 383.66" fill="#a3a4d0"/><path d="M 607.46 415.63 A 31.97 31.97 0 0 1  639.4300000000001 383.66 L 607.46 415.63 A 31.97 31.97 0 0 0 639.4300000000001 383.66" fill="#d371a0"/><path d="M 575.49 415.63 A 31.97 31.97 0 0 1  607.46 447.6 L 575.49 415.63 A 31.97 31.97 0 0 0 607.46 447.6" fill="#e9b9d0"/><path d="M 607.46 415.63 A 31.97 31.97 0 0 1  639.4300000000001 447.6 L 607.46 415.63 A 31.97 31.97 0 0 0 639.4300000000001 447.6" fill="#eabad1"/><rect x="639.4285714285714" y="383.65714285714284" width="63.94285714285714" height="63.94285714285714" fill="#ffffff"/><path d="M 639.43 383.66 A 31.97 31.97 0 0 1  671.4 415.63 L 639.43 383.66 A 31.97 31.97 0 0 0 671.4 415.63" fill="#df98ba"/><path d="M 671.4 383.66 A 31.97 31.97 0 0 1  703.37 415.63 L 671.4 383.66 A 31.97 31.97 0 0 0 703.37 415.63" fill="#8f90c5"/><path d="M 639.43 447.6 A 31.97 31.97 0 0 1  671.4 415.63 L 639.43 447.6 A 31.97 31.97 0 0 0 671.4 415.63" fill="#bbbcdc"/><path d="M 671.4 415.63 A 31.97 31.97 0 0 1  703.37 447.6 L 671.4 415.63 A 31.97 31.97 0 0 0 703.37 447.6" fill="#8587c0"/><path d="M 703.37 383.66 A 63.94 63.94 0 0 1  767.31 447.6 L 703.37 383.66 A 63.94 63.94 0 0 0 767.31 447.6" fill="#787ab9"/></g></svg>